# xmcd
#
# Track frame offsets:
#	300
#	16832
#	32215
#	48926
#	65957
#	83820
#	102768
#	119599
#	140582
#	154771
#	169012
#	187355
#	212496
#	228013
#	249764
#	262219
#	279681
#	293646
#
# Disc length: 4066 seconds
#
# Revision: 0
# Processed by: cddbd v1.5.2PL0 Copyright (c) Steve Scherf et al.
# Submitted via: audiograbber 1.83.01
#
DISCID=080fde12
DTITLE=Various Artist - The Best Blues Album...Ever!  [CD1]
DYEAR=2000
DGENRE=Blues
TTITLE0=Johnny Winter - Illustrated Man
TTITLE1=Albert Collins - Frosty
TTITLE2=John Hammond - I've Got Love If You Want It
TTITLE3=B.B.King - Three O'Clock Blues
TTITLE4=Charlie Musselwhite - Can't Stay Away
TTITLE5=Duke Robillard - Don't Get Me Shook Up
TTITLE6=Boneshakers,The - Cold Sweat
TTITLE7=Larry McCray - Me and My Baby
TTITLE8=Colin James and The Little Big Band - No More Doggin
TTITLE9=Kinsey Report,The - Too Early To Tell
TTITLE10=Pops Stales - I Shall Not Be Moved
TTITLE11=Terry Evans - Get Your Lies Straight
TTITLE12=Hadda Broo Brooks - Need a Little Sugar In My Bowl
TTITLE13=Roy Rogers - Down Here In The The Big Empty
TTITLE14=Elmore James - Dust My Broom
TTITLE15=Solomon Burke - Today Is Your Birthday
TTITLE16=Lowell Fulsom - Tramp
TTITLE17=Big Maybelle - So Good To My Baby
EXTD=
EXTT0=
EXTT1=
EXTT2=
EXTT3=
EXTT4=
EXTT5=
EXTT6=
EXTT7=
EXTT8=
EXTT9=
EXTT10=
EXTT11=
EXTT12=
EXTT13=
EXTT14=
EXTT15=
EXTT16=
EXTT17=
PLAYORDER=
